
        <svg xmlns="http://www.w3.org/2000/svg" xmlns:xlink="http://www.w3.org/1999/xlink" version="1.1" width="3162.306381086489" 
        height="874.7951549436863" viewBox="0 0 3162.306381086489 874.7951549436863">
			
			<g transform="scale(8.115319054324464) translate(10, 10)">
				<defs id="SvgjsDefs1506"></defs><g id="SvgjsG1507" featureKey="monogramFeature-0" transform="matrix(5.755195527458379,0,0,5.755195527458379,7,-27.308378812589616)" fill="#ffa80c"><path d="M0 14.3262 l6.3281 0 l0 -2.3242 l-6.3281 0 l0 2.3242 z M0 20 l10.83 0 l0 -2.3242 l-10.83 0 l0 2.3242 z M0 8.633 l10.83 0 l0 -2.3242 l-10.83 0 l0 2.3242 z"></path></g><g id="SvgjsG1508" featureKey="Qg0WB5-0" transform="matrix(6.242865565545275,0,0,6.242865565545275,80.87628452565318,-38.20633654669781)" fill="#ffffff"><path d="M1.64 10.12 l2.94 4.04 l2.94 -4.04 l1.18 0 l0 0.04 l-3.54 4.72 l3.82 5.08 l0 0.04 l-1.16 0 l-3.24 -4.42 l-3.24 4.42 l-1.16 0 l0 -0.04 l3.82 -5.08 l-3.54 -4.72 l0 -0.04 l1.18 0 z M11.8 10.08 l-0.98 0 l0 9.92 l0.98 0 l0 -9.92 z M10.540000000000001 6.9 c0 -1.04 1.58 -1.04 1.58 0 s-1.58 1.04 -1.58 0 z M30.22 20 l-0.98 0 l0 -5.92 c0 -1.9 -1.28 -3.24 -3.16 -3.24 s-3.18 1.4 -3.18 3.3 l0 5.86 l-0.98 0 l0 -5.86 c0 -1.9 -1.3 -3.28 -3.18 -3.28 s-3.16 1.38 -3.16 3.28 l0 5.86 l-0.98 0 l0 -9.88 l0.92 0 l0.02 1.64 c0.68 -1.3 1.94 -1.84 3.22 -1.84 c1.5 0 3.08 0.68 3.66 2.44 c0.6 -1.62 2.14 -2.44 3.66 -2.44 c2.42 0 4.14 1.7 4.14 4.16 l0 5.92 z M33.96 10.08 l-0.98 0 l0 9.92 l0.98 0 l0 -9.92 z M32.699999999999996 6.9 c0 -1.04 1.58 -1.04 1.58 0 s-1.58 1.04 -1.58 0 z M45.279999999999994 10.12 l0.98 0 l0 9.88 l-0.98 0 l0 -2.1 c-0.96 1.54 -2.44 2.26 -4.04 2.26 c-2.76 0 -5.02 -2.08 -5.02 -5.1 s2.26 -5.06 5.02 -5.06 c1.6 0 3.22 0.74 4.04 2.28 l0 -2.16 z M41.239999999999995 10.94 c-2.24 0 -4.04 1.64 -4.04 4.12 s1.8 4.14 4.04 4.14 c5.5 0 5.5 -8.26 0 -8.26 z"></path></g>
			</g>
		</svg>
	